<?xml version="1.0" encoding="utf-8"?>
<svg xmlns="http://www.w3.org/2000/svg" width="800" height="770" id="svg4004" version="1.1">
  <path style="stroke-width: 0px; stroke: rgb(255, 255, 255);" d="M 486.572 683.815 C 464.997 653.702 431.334 606.686 411.766 579.335 C 391.78 551.399 375.521 529.596 374.665 529.585 C 373.786 529.573 342.342 571.842 300.288 629.565 C 260.218 684.565 227.101 729.565 226.693 729.565 C 225.553 729.565 82.232 628.615 81.863 627.553 C 81.685 627.039 114.085 579.477 153.863 521.859 C 193.642 464.242 226.188 416.192 226.188 415.083 C 226.188 413.293 213.298 408.768 112.188 375.06 C 49.488 354.156 -2.426 336.814 -3.176 336.521 C -4.22 336.114 1.749 316.141 22.227 251.527 C 36.949 205.073 49.327 166.686 49.734 166.222 C 50.141 165.759 104.634 183.197 170.831 204.973 C 237.027 226.75 291.742 244.567 292.419 244.566 C 293.096 244.565 293.862 243.552 294.121 242.315 C 294.38 241.077 294.951 184.715 295.39 117.065 C 295.829 49.415 296.552 -6.498 296.997 -7.185 C 297.634 -8.169 316.229 -8.432 384.497 -8.42 C 432.177 -8.412 471.685 -8.074 472.292 -7.67 C 473.057 -7.16 474.365 30.031 476.556 113.565 C 480.152 250.727 480.23 252.565 482.417 252.565 C 483.265 252.565 535.727 235.004 599 213.542 C 662.273 192.079 714.35 174.866 714.727 175.292 C 716.005 176.734 767.9 345.685 767.26 346.324 C 766.91 346.673 714.107 364.758 649.915 386.512 C 561.611 416.437 533.125 426.473 532.886 427.739 C 532.71 428.675 563.076 474.055 601.689 530.56 C 639.704 586.19 670.668 632.12 670.498 632.627 C 670.106 633.792 527.867 738.565 526.677 738.565 C 526.194 738.565 508.147 713.927 486.572 683.815 Z" id="path4093"/>
</svg>