<?xml version="1.0" encoding="utf-8"?>
<svg xmlns="http://www.w3.org/2000/svg" viewBox="0 0 234 152">
  <g transform="matrix(1, 0, 0, 1, 176.101776, -179.190475)">
    <g>
      <g transform="matrix(1, 0, 0, 1, -176.40097, 179.168045)">
        <path d="M 42.396 38.91 C 63.215 14.217 75.312 -0.325 129.822 0.052 C 187.951 0.454 204.235 11.56 223.248 40.663 C 240.516 67.095 229.266 152.126 229.266 152.126 L 35.384 152.33 C 35.384 152.33 23.808 60.956 42.396 38.91 Z" style=""/>
        <path d="M 77.574 103.032 C 77.574 103.032 113.331 95.194 131.815 95.027 C 149.746 94.865 185.9 101.84 185.9 101.84 C 185.947 101.84 203.618 106.987 203.393 121.85 C 203.168 136.713 189.136 142.889 189.136 142.889 C 189.136 142.983 155.677 151.575 155.583 151.575 L 111.98 151.745 C 111.886 151.745 75.532 143.324 75.532 143.23 C 75.532 143.23 62.114 139.449 63.015 122.392 C 63.706 109.308 77.53 103.032 77.574 103.032 Z" style="fill: rgb(224, 169, 144);"/>
        <g>
          <path d="M 81.351 112.3 C 85.729 106.088 105.55 108.14 112.564 113.381 L 109.174 118.298 C 103.564 110.881 85.387 109.23 81.351 112.3 Z" style="fill: rgb(91, 59, 36);"/>
          <path d="M 152.872 113.575 C 157.25 119.787 177.071 117.735 184.085 112.494 L 180.695 107.577 C 175.085 114.994 156.908 116.645 152.872 113.575 Z" style="fill: rgb(91, 59, 36); transform-box: fill-box; transform-origin: 50% 50%;" transform="matrix(-1, 0, 0, -1, 0.000016, 0.000011)"/>
        </g>
        <g transform="matrix(1, 0, 0, 1, 1.648735, 0)">
          <g>
            <ellipse style="fill: rgb(255, 255, 255); transform-box: fill-box; transform-origin: 50% 50%;" cx="97.713" cy="131.77" rx="10.702" ry="12.65" transform="matrix(0.983054, -0.183316, 0.183316, 0.983054, 0.154989, -0.102918)"/>
            <ellipse style="transform-box: fill-box; transform-origin: -31.4836% 75.5609%;" cx="97.713" cy="131.77" rx="5.884" ry="7.075" transform="matrix(0.983054, -0.183316, 0.183316, 0.983054, 2.407727, 4.89216)"/>
            <path d="M 103.769 131.828 C 103.753 132.518 102.687 134.293 101.111 134.293 C 99.535 134.293 98.257 133.105 98.257 131.639 C 98.257 130.173 100.518 129.072 101.162 129.059 C 101.806 129.046 103.785 131.138 103.769 131.828 Z" style="fill: rgb(117, 127, 133); transform-origin: 96.461px 132.996px;" transform="matrix(0.983054, -0.183316, 0.183316, 0.983054, 0.000001, 0)"/>
          </g>
          <g transform="matrix(-1, 0, 0, 1, 262.13855, 0.595561)" style="">
            <ellipse style="fill: rgb(255, 255, 255); transform-box: fill-box; transform-origin: 50% 50%;" cx="97.713" cy="131.77" rx="10.702" ry="12.65" transform="matrix(0.983054, -0.183316, 0.183316, 0.983054, 0.154989, -0.102918)"/>
            <ellipse style="transform-box: fill-box; transform-origin: -31.4836% 75.5609%;" cx="97.713" cy="131.77" rx="5.884" ry="7.075" transform="matrix(0.983054, -0.183316, 0.183316, 0.983054, 2.407727, 4.89216)"/>
            <path d="M 103.769 131.828 C 103.753 132.518 102.687 134.293 101.111 134.293 C 99.535 134.293 98.257 133.105 98.257 131.639 C 98.257 130.173 100.518 129.072 101.162 129.059 C 101.806 129.046 103.785 131.138 103.769 131.828 Z" style="fill: rgb(117, 127, 133); transform-origin: 96.461px 132.996px;" transform="matrix(0.983054, -0.183316, 0.183316, 0.983054, 0.000001, 0)"/>
          </g>
        </g>
        <path d="M 32.932 56.758 L 232.041 58.085 L 233.669 76.349 L 31.677 76.349 L 32.932 56.758 Z" style="fill: rgb(221, 60, 87);"/>
        <path d="M 26.937 67.03 L 31.832 71.666 C 31.832 71.666 27.929 87.613 27.112 96.651 C 25.534 114.111 26.648 151.095 26.648 151.095 L 17.604 151.095 C 17.604 151.095 13.827 110.564 17.553 90.901 C 19.157 82.435 26.937 67.03 26.937 67.03 Z" style="fill: rgb(221, 60, 87);"/>
        <path d="M 27.488 60.541 L 28.895 66.013 C 28.895 66.013 13.552 88.239 12.735 97.277 C 11.157 114.737 11.155 152 11.155 152 L 2.111 152 C 2.111 152 -0.606 115.806 2.2 95.991 C 4.92 76.782 27.488 60.541 27.488 60.541 Z" style="fill: rgb(221, 60, 87);"/>
        <path d="M 26.893 56.643 L 34.64 56.052 L 35.708 77.094 L 27.036 78.192 L 26.893 56.643 Z" style="fill: rgb(201, 57, 87);"/>
      </g>
    </g>
  </g>
</svg>